<?xml version="1.0" encoding="UTF-8"?>
<!DOCTYPE svg PUBLIC "-//W3C//DTD SVG 1.1//EN" "http://www.w3.org/Graphics/SVG/1.1/DTD/svg11.dtd">
<svg xmlns="http://www.w3.org/2000/svg" version="1.1" width="6912px" height="3456px" style="shape-rendering:geometricPrecision; text-rendering:geometricPrecision; image-rendering:optimizeQuality; fill-rule:evenodd; clip-rule:evenodd" xmlns:xlink="http://www.w3.org/1999/xlink">
<g><path style="opacity:0.997" fill="#edeeed" d="M 2262.5,345.5 C 2309.82,344.399 2355.16,353.232 2398.5,372C 2461.61,403.468 2501.44,453.635 2518,522.5C 2529.54,576.609 2530.54,630.943 2521,685.5C 2506.11,769.59 2474.44,846.59 2426,916.5C 2380.58,980.601 2327.41,1037.77 2266.5,1088C 2166.55,1169.02 2056.89,1234.85 1937.5,1285.5C 1936.3,1099.17 1936.47,912.833 1938,726.5C 1943.66,623.107 1980,532.44 2047,454.5C 2082.2,415.293 2124.03,385.46 2172.5,365C 2201.51,353.301 2231.51,346.801 2262.5,345.5 Z"/></g>
<g><path style="opacity:0.998" fill="#edeeed" d="M 2636.5,566.5 C 2648.83,566.5 2661.17,566.5 2673.5,566.5C 2673.67,1141.83 2673.5,1717.17 2673,2292.5C 2669.24,2314.52 2658.08,2331.69 2639.5,2344C 2424.33,2476.08 2209.33,2608.42 1994.5,2741C 1977.57,2750.59 1961.57,2749.26 1946.5,2737C 1940.72,2730.6 1937.22,2723.1 1936,2714.5C 1935.5,2367.17 1935.33,2019.83 1935.5,1672.5C 1691.3,1683.44 1455.64,1733.94 1228.5,1824C 1101.85,1874.29 984.519,1939.96 876.5,2021C 782.969,2092.52 704.136,2177.35 640,2275.5C 558.915,2405.1 513.248,2546.43 503,2699.5C 501.742,2725.82 500.908,2752.15 500.5,2778.5C 488.167,2778.5 475.833,2778.5 463.5,2778.5C 463.333,2202.83 463.5,1627.17 464,1051.5C 467.869,1028.91 479.369,1011.41 498.5,999C 713.667,866.917 928.667,734.584 1143.5,602C 1165.32,591.17 1183.16,595.67 1197,615.5C 1199.14,619.934 1200.48,624.6 1201,629.5C 1201.5,976.833 1201.67,1324.17 1201.5,1671.5C 1295.25,1668.95 1388.25,1659.12 1480.5,1642C 1655.75,1611.36 1824.41,1559.7 1986.5,1487C 2106.57,1432.35 2216.57,1362.68 2316.5,1278C 2529.51,1089.73 2636.18,852.562 2636.5,566.5 Z"/></g>
<g><path style="opacity:0.997" fill="#edeeed" d="M 2950.5,1020.5 C 3164.17,1020.5 3377.83,1020.5 3591.5,1020.5C 3591.5,1089.17 3591.5,1157.83 3591.5,1226.5C 3456.17,1226.5 3320.83,1226.5 3185.5,1226.5C 3185.5,1300.83 3185.5,1375.17 3185.5,1449.5C 3301.5,1449.5 3417.5,1449.5 3533.5,1449.5C 3533.5,1518.5 3533.5,1587.5 3533.5,1656.5C 3417.5,1656.5 3301.5,1656.5 3185.5,1656.5C 3185.5,1730.83 3185.5,1805.17 3185.5,1879.5C 3320.83,1879.5 3456.17,1879.5 3591.5,1879.5C 3591.5,1948.17 3591.5,2016.83 3591.5,2085.5C 3377.83,2085.5 3164.17,2085.5 2950.5,2085.5C 2950.5,1730.5 2950.5,1375.5 2950.5,1020.5 Z"/></g>
<g><path style="opacity:0.997" fill="#edeeed" d="M 3871.5,1020.5 C 4128.5,1020.5 4385.5,1020.5 4642.5,1020.5C 4642.5,1089.83 4642.5,1159.17 4642.5,1228.5C 4553.17,1228.5 4463.83,1228.5 4374.5,1228.5C 4374.5,1514.17 4374.5,1799.83 4374.5,2085.5C 4296.83,2085.5 4219.17,2085.5 4141.5,2085.5C 4141.5,1799.83 4141.5,1514.17 4141.5,1228.5C 4051.5,1228.5 3961.5,1228.5 3871.5,1228.5C 3871.5,1159.17 3871.5,1089.83 3871.5,1020.5 Z"/></g>
<g><path style="opacity:0.992" fill="#edeeed" d="M 4963.5,1020.5 C 5042.17,1020.5 5120.83,1020.5 5199.5,1020.5C 5199.5,1375.5 5199.5,1730.5 5199.5,2085.5C 5120.83,2085.5 5042.17,2085.5 4963.5,2085.5C 4963.5,1730.5 4963.5,1375.5 4963.5,1020.5 Z"/></g>
<g><path style="opacity:0.995" fill="#edeeed" d="M 5525.5,1020.5 C 5615.17,1020.33 5704.83,1020.5 5794.5,1021C 5862.67,1127.99 5931,1234.82 5999.5,1341.5C 6068,1234.82 6136.33,1127.99 6204.5,1021C 6294.17,1020.17 6383.84,1020.33 6473.5,1021.5C 6357.8,1192.86 6242.13,1364.19 6126.5,1535.5C 6248.24,1718.63 6370.24,1901.63 6492.5,2084.5C 6402.83,2085.83 6313.17,2085.83 6223.5,2084.5C 6148.83,1966.5 6074.17,1848.5 5999.5,1730.5C 5924.44,1848.23 5849.77,1966.23 5775.5,2084.5C 5684.84,2085.67 5594.17,2085.83 5503.5,2085C 5626.62,1902.59 5749.62,1720.09 5872.5,1537.5C 5756.57,1365.28 5640.9,1192.95 5525.5,1020.5 Z"/></g>
<g><path style="opacity:0.997" fill="#edeeed" d="M 1197.5,2059.5 C 1198.5,2059.5 1199.5,2059.5 1200.5,2059.5C 1200.1,2231.89 1199.44,2404.56 1198.5,2577.5C 1202.49,2695.37 1166.66,2799.04 1091,2888.5C 1053.97,2930.42 1009.47,2961.59 957.5,2982C 914.044,2997.88 869.377,3002.55 823.5,2996C 694.774,2977.27 623.941,2903.1 611,2773.5C 604.6,2670.83 626.267,2574.5 676,2484.5C 702.675,2437.16 734.008,2393.16 770,2352.5C 841.406,2275.71 921.573,2210.21 1010.5,2156C 1070.29,2119.1 1132.62,2086.94 1197.5,2059.5 Z"/></g>
<g><path style="opacity:0.991" fill="#f87315" d="M 3230.5,2430.5 C 3246.83,2430.5 3263.17,2430.5 3279.5,2430.5C 3279.5,2517.83 3279.5,2605.17 3279.5,2692.5C 3263.17,2692.5 3246.83,2692.5 3230.5,2692.5C 3230.5,2605.17 3230.5,2517.83 3230.5,2430.5 Z"/></g>
<g><path style="opacity:0.981" fill="#f87315" d="M 3947.5,2430.5 C 3963.83,2430.5 3980.17,2430.5 3996.5,2430.5C 3996.5,2517.83 3996.5,2605.17 3996.5,2692.5C 3980.16,2692.71 3963.83,2693.04 3947.5,2693.5C 3947.67,2689.15 3947.5,2684.82 3947,2680.5C 3929.43,2694.35 3909.6,2698.85 3887.5,2694C 3849.74,2681.87 3830.08,2655.87 3828.5,2616C 3830.01,2575.59 3850.01,2549.59 3888.5,2538C 3910.16,2533.46 3929.66,2537.96 3947,2551.5C 3947.5,2511.17 3947.67,2470.83 3947.5,2430.5 Z M 3908.5,2580.5 C 3930.17,2579.69 3943.67,2589.69 3949,2610.5C 3949.19,2638.97 3935.03,2652.47 3906.5,2651C 3881.28,2642.06 3873.11,2624.89 3882,2599.5C 3888.18,2589.34 3897.02,2583 3908.5,2580.5 Z"/></g>
<g><path style="opacity:0.976" fill="#f87315" d="M 3031.5,2460.5 C 3085.17,2456.5 3125.5,2477.5 3152.5,2523.5C 3137.84,2531.16 3123.18,2538.83 3108.5,2546.5C 3086.23,2512.35 3055.89,2502.52 3017.5,2517C 2990.24,2532.05 2978.07,2555.22 2981,2586.5C 2986.42,2619.58 3005.58,2639.08 3038.5,2645C 3069.33,2647.75 3092.67,2635.92 3108.5,2609.5C 3123.18,2617.17 3137.84,2624.84 3152.5,2632.5C 3129.49,2673.18 3094.49,2694.18 3047.5,2695.5C 2995.46,2693.6 2958.96,2668.93 2938,2621.5C 2920.79,2571.19 2930.96,2527.36 2968.5,2490C 2986.77,2474.3 3007.77,2464.47 3031.5,2460.5 Z"/></g>
<g><path style="opacity:0.978" fill="#f87315" d="M 3434.5,2536.5 C 3460.95,2534.15 3484.62,2540.99 3505.5,2557C 3524.48,2575.83 3532.65,2598.66 3530,2625.5C 3524.98,2661.52 3504.81,2684.02 3469.5,2693C 3439.63,2699.84 3412.3,2694.51 3387.5,2677C 3364.16,2654.99 3355.66,2628.16 3362,2596.5C 3370.06,2567.44 3388.56,2548.61 3417.5,2540C 3423.26,2538.61 3428.93,2537.45 3434.5,2536.5 Z M 3439.5,2580.5 C 3464.29,2579.95 3478.29,2591.95 3481.5,2616.5C 3477.7,2641.13 3463.37,2652.63 3438.5,2651C 3422.11,2647.27 3412.61,2637.11 3410,2620.5C 3409.38,2599.3 3419.22,2585.97 3439.5,2580.5 Z"/></g>
<g><path style="opacity:0.978" fill="#f87315" d="M 3607.5,2539.5 C 3624.17,2539.5 3640.83,2539.5 3657.5,2539.5C 3657.33,2571.17 3657.5,2602.84 3658,2634.5C 3662.36,2647.83 3671.52,2653.33 3685.5,2651C 3694.96,2647.88 3700.46,2641.38 3702,2631.5C 3702.5,2600.84 3702.67,2570.17 3702.5,2539.5C 3718.83,2539.5 3735.17,2539.5 3751.5,2539.5C 3751.67,2573.83 3751.5,2608.17 3751,2642.5C 3747.32,2670.18 3731.82,2687.01 3704.5,2693C 3680.68,2698.15 3657.68,2695.82 3635.5,2686C 3619.54,2676.35 3610.38,2662.18 3608,2643.5C 3607.5,2608.83 3607.33,2574.17 3607.5,2539.5 Z"/></g>
</svg>
