<?xml version="1.0" encoding="UTF-8"?>
<!DOCTYPE svg PUBLIC "-//W3C//DTD SVG 1.1//EN" "http://www.w3.org/Graphics/SVG/1.1/DTD/svg11.dtd">
<svg xmlns="http://www.w3.org/2000/svg" version="1.1" width="6912px" height="3456px" style="shape-rendering:geometricPrecision; text-rendering:geometricPrecision; image-rendering:optimizeQuality; fill-rule:evenodd; clip-rule:evenodd" xmlns:xlink="http://www.w3.org/1999/xlink">
<g><path style="opacity:0.999" fill="#f97215" d="M 2258.5,345.5 C 2303.51,344.39 2346.85,352.223 2388.5,369C 2456.05,400.907 2498.22,453.407 2515,526.5C 2526.08,582.797 2526.08,639.13 2515,695.5C 2499.31,775.512 2468.31,848.845 2422,915.5C 2373.17,983.673 2316,1044.17 2250.5,1097C 2154.17,1173.69 2048.84,1235.86 1934.5,1283.5C 1933.24,1099.83 1933.4,916.166 1935,732.5C 1939.48,625.002 1976.81,531.002 2047,450.5C 2080.17,414.673 2119.01,386.84 2163.5,367C 2194.05,354.26 2225.72,347.094 2258.5,345.5 Z"/></g>
<g><path style="opacity:0.999" fill="#f97215" d="M 2632.5,566.5 C 2644.83,566.5 2657.17,566.5 2669.5,566.5C 2669.67,1139.17 2669.5,1711.83 2669,2284.5C 2665.35,2311.13 2651.85,2330.96 2628.5,2344C 2416.67,2474.08 2205,2604.42 1993.5,2735C 1977.84,2744.95 1962.18,2744.95 1946.5,2735C 1939,2728.5 1934.5,2720.33 1933,2710.5C 1932.5,2363.5 1932.33,2016.5 1932.5,1669.5C 1681.62,1681.14 1439.95,1734.31 1207.5,1829C 1084.79,1879.82 971.121,1945.15 866.5,2025C 776.21,2095.56 700.044,2178.72 638,2274.5C 554.673,2409.5 509.339,2556.5 502,2715.5C 501.167,2734.83 500.667,2754.16 500.5,2773.5C 488.167,2773.5 475.833,2773.5 463.5,2773.5C 463.333,2198.83 463.5,1624.17 464,1049.5C 467.683,1028.96 477.85,1012.46 494.5,1000C 710.764,867.397 926.764,734.397 1142.5,601C 1157.24,593.281 1171.58,593.947 1185.5,603C 1192.69,608.884 1197.19,616.384 1199,625.5C 1199.5,973.5 1199.67,1321.5 1199.5,1669.5C 1424.63,1659.44 1642.96,1615.61 1854.5,1538C 1978.81,1492.85 2095.48,1433.52 2204.5,1360C 2289.68,1301.51 2365.51,1232.34 2432,1152.5C 2552.81,1001.18 2618.81,828.177 2630,633.5C 2631.1,611.175 2631.93,588.841 2632.5,566.5 Z"/></g>
<g><path style="opacity:0.998" fill="#1c1c1c" d="M 2950.5,1020.5 C 3164.17,1020.5 3377.83,1020.5 3591.5,1020.5C 3591.5,1089.17 3591.5,1157.83 3591.5,1226.5C 3456.17,1226.5 3320.83,1226.5 3185.5,1226.5C 3185.5,1300.83 3185.5,1375.17 3185.5,1449.5C 3301.17,1449.5 3416.83,1449.5 3532.5,1449.5C 3532.5,1518.5 3532.5,1587.5 3532.5,1656.5C 3416.83,1656.5 3301.17,1656.5 3185.5,1656.5C 3185.5,1730.83 3185.5,1805.17 3185.5,1879.5C 3320.83,1879.5 3456.17,1879.5 3591.5,1879.5C 3591.5,1948.17 3591.5,2016.83 3591.5,2085.5C 3377.83,2085.5 3164.17,2085.5 2950.5,2085.5C 2950.5,1730.5 2950.5,1375.5 2950.5,1020.5 Z"/></g>
<g><path style="opacity:0.997" fill="#1c1c1c" d="M 3871.5,1020.5 C 4128.5,1020.5 4385.5,1020.5 4642.5,1020.5C 4642.5,1089.83 4642.5,1159.17 4642.5,1228.5C 4553.17,1228.5 4463.83,1228.5 4374.5,1228.5C 4374.5,1514.17 4374.5,1799.83 4374.5,2085.5C 4296.83,2085.5 4219.17,2085.5 4141.5,2085.5C 4141.5,1799.83 4141.5,1514.17 4141.5,1228.5C 4051.5,1228.5 3961.5,1228.5 3871.5,1228.5C 3871.5,1159.17 3871.5,1089.83 3871.5,1020.5 Z"/></g>
<g><path style="opacity:0.997" fill="#1c1c1c" d="M 4963.5,1020.5 C 5041.83,1020.5 5120.17,1020.5 5198.5,1020.5C 5198.5,1375.5 5198.5,1730.5 5198.5,2085.5C 5120.17,2085.5 5041.83,2085.5 4963.5,2085.5C 4963.5,1730.5 4963.5,1375.5 4963.5,1020.5 Z"/></g>
<g><path style="opacity:0.996" fill="#1c1c1c" d="M 5525.5,1020.5 C 5615.17,1020.17 5704.84,1020.5 5794.5,1021.5C 5862.67,1128.5 5930.83,1235.5 5999,1342.5C 6067.5,1235.33 6136,1128.17 6204.5,1021C 6294.17,1020.33 6383.83,1020.33 6473.5,1021C 6357.45,1192.28 6241.78,1363.78 6126.5,1535.5C 6248.24,1718.63 6370.24,1901.63 6492.5,2084.5C 6402.84,2085.67 6313.17,2085.83 6223.5,2085C 6148.29,1966.75 6073.46,1848.25 5999,1729.5C 5924.54,1848.25 5849.71,1966.75 5774.5,2085C 5684.17,2085.67 5593.83,2085.67 5503.5,2085C 5626.25,1902.16 5749.25,1719.49 5872.5,1537C 5756.19,1365.21 5640.53,1193.04 5525.5,1020.5 Z"/></g>
<g><path style="opacity:0.999" fill="#f97215" d="M 1196.5,2055.5 C 1197.83,2117 1198.5,2178.83 1198.5,2241C 1197.93,2346.83 1197.93,2452.5 1198.5,2558C 1202.87,2657.68 1179.04,2749.85 1127,2834.5C 1094.7,2883.8 1053.53,2923.97 1003.5,2955C 930.666,2995.99 853.999,3004.66 773.5,2981C 688.664,2954.16 636.498,2897.33 617,2810.5C 603.974,2736.19 608.307,2662.85 630,2590.5C 649.397,2527.38 678.064,2469.04 716,2415.5C 769.049,2343.45 831.216,2280.28 902.5,2226C 993.19,2157.14 1091.19,2100.3 1196.5,2055.5 Z"/></g>
<g><path style="opacity:0.994" fill="#f97215" d="M 3230.5,2430.5 C 3246.83,2430.5 3263.17,2430.5 3279.5,2430.5C 3279.5,2517.83 3279.5,2605.17 3279.5,2692.5C 3263.17,2692.5 3246.83,2692.5 3230.5,2692.5C 3230.5,2605.17 3230.5,2517.83 3230.5,2430.5 Z"/></g>
<g><path style="opacity:0.99" fill="#f97215" d="M 3947.5,2430.5 C 3963.83,2430.5 3980.17,2430.5 3996.5,2430.5C 3996.5,2517.83 3996.5,2605.17 3996.5,2692.5C 3980.16,2692.71 3963.83,2693.04 3947.5,2693.5C 3947.67,2689.15 3947.5,2684.82 3947,2680.5C 3929.43,2694.35 3909.6,2698.85 3887.5,2694C 3849.74,2681.87 3830.08,2655.87 3828.5,2616C 3829.31,2580.68 3845.64,2555.68 3877.5,2541C 3902.67,2532.11 3925.84,2535.61 3947,2551.5C 3947.5,2511.17 3947.67,2470.83 3947.5,2430.5 Z M 3908.5,2580.5 C 3930.14,2579.65 3943.64,2589.65 3949,2610.5C 3949.19,2638.97 3935.03,2652.47 3906.5,2651C 3885.63,2644.43 3876.46,2630.26 3879,2608.5C 3883.23,2593.1 3893.06,2583.77 3908.5,2580.5 Z"/></g>
<g><path style="opacity:0.991" fill="#f97215" d="M 3032.5,2460.5 C 3086.03,2456.76 3126.03,2477.92 3152.5,2524C 3137.68,2531.24 3123.01,2538.74 3108.5,2546.5C 3087.92,2514.39 3059.26,2503.89 3022.5,2515C 2998.95,2525.22 2985.12,2543.06 2981,2568.5C 2978.05,2599.05 2989.55,2622.22 3015.5,2638C 3054.5,2653.94 3085.5,2644.44 3108.5,2609.5C 3123.14,2617.16 3137.81,2624.82 3152.5,2632.5C 3126.09,2678.04 3086.42,2698.88 3033.5,2695C 2976.24,2685.08 2942.08,2651.58 2931,2594.5C 2926.09,2542.49 2945.59,2502.65 2989.5,2475C 3003.17,2467.83 3017.51,2463 3032.5,2460.5 Z"/></g>
<g><path style="opacity:0.991" fill="#f97215" d="M 3433.5,2536.5 C 3464.08,2533.3 3490.25,2542.3 3512,2563.5C 3530.74,2588.82 3535.08,2616.48 3525,2646.5C 3514.17,2670.99 3495.67,2686.49 3469.5,2693C 3439.63,2699.84 3412.3,2694.51 3387.5,2677C 3363.97,2655.06 3355.47,2628.23 3362,2596.5C 3369.96,2567.87 3388.13,2549.04 3416.5,2540C 3422.31,2538.87 3427.98,2537.7 3433.5,2536.5 Z M 3439.5,2580.5 C 3464.06,2579.89 3478.06,2591.72 3481.5,2616C 3477.94,2640.89 3463.61,2652.56 3438.5,2651C 3418.11,2645.26 3408.61,2631.76 3410,2610.5C 3413.32,2594.01 3423.15,2584.01 3439.5,2580.5 Z"/></g>
<g><path style="opacity:0.989" fill="#f97215" d="M 3607.5,2539.5 C 3624.17,2539.5 3640.83,2539.5 3657.5,2539.5C 3657.33,2571.17 3657.5,2602.84 3658,2634.5C 3662.36,2647.83 3671.52,2653.33 3685.5,2651C 3693.33,2648.5 3698.5,2643.33 3701,2635.5C 3702.46,2603.54 3702.96,2571.54 3702.5,2539.5C 3718.83,2539.5 3735.17,2539.5 3751.5,2539.5C 3751.67,2573.83 3751.5,2608.17 3751,2642.5C 3747.32,2670.18 3731.82,2687.01 3704.5,2693C 3680.68,2698.15 3657.68,2695.82 3635.5,2686C 3619.54,2676.35 3610.38,2662.18 3608,2643.5C 3607.5,2608.83 3607.33,2574.17 3607.5,2539.5 Z"/></g>
</svg>
